<?xml version="1.0" encoding="UTF-8"?>
<!-- Created with Inkscape (http://www.inkscape.org/) -->
<svg width="18" height="18" version="1.1" viewBox="0 0 4.7625 4.7625" xml:space="preserve" xmlns="http://www.w3.org/2000/svg"><g transform="translate(-86.882 -92.159)"><g transform="matrix(.0066146 0 0 .0066146 86.088 97.715)" fill="#fff"><path d="m422.46-323.69 255.85-255.85-28.31-28.31-227.54 227.54-114-114-28.31 28.31zm57.67 203.69q-74.67 0-140.41-28.34-65.73-28.34-114.36-76.92t-76.99-114.26q-28.37-65.67-28.37-140.35 0-74.67 28.34-140.41 28.34-65.73 76.92-114.36t114.26-76.99q65.67-28.37 140.35-28.37 74.67 0 140.41 28.34 65.73 28.34 114.36 76.92t76.99 114.26q28.37 65.67 28.37 140.35 0 74.67-28.34 140.41-28.34 65.73-76.92 114.36t-114.26 76.99q-65.67 28.37-140.35 28.37zm-0.13-40q134 0 227-93t93-227-93-227-227-93-227 93-93 227 93 227 227 93z"/></g></g></svg>
