<?xml version="1.0" encoding="UTF-8"?>
<!-- Created with Inkscape (http://www.inkscape.org/) -->
<svg width="60.034" height="44.501" version="1.1" viewBox="0 0 15.884 11.774" xmlns="http://www.w3.org/2000/svg">
 <g transform="translate(-139.44 -180.45)">
  <path d="m146.16 192.18c-1.6788-0.23676-3.3457-1.1288-4.4036-2.3567l-0.27202-0.31572-0.4401 0.12349c-0.60951 0.17103-0.84692 0.16397-0.97333-0.029-0.19807-0.3023 0.0786-0.61081 0.63613-0.70947 0.35142-0.0622 0.35388-0.0709 0.18157-0.63987l-0.15863-0.52385-0.47318 0.0323c-0.53877 0.0368-0.66164 5e-3 -0.76987-0.19688-0.0638-0.11925-0.0626-0.1712 7e-3 -0.30665 0.0933-0.18031 0.17155-0.20923 0.73259-0.27061l0.38425-0.042 0.044-0.35277c0.0497-0.39834 0.16733-0.79251 0.38323-1.2844l0.14742-0.33585-0.1625-0.66966c-0.38939-1.6047-0.21263-3.3636 0.37449-3.7265 0.61158-0.37797 2.0005 0.17978 3.1942 1.2826l0.43152 0.3987 0.30783-0.0951c0.30543-0.0943 0.70848-0.18244 1.1063-0.24183 0.73161-0.10921 2.1723 2e-3 2.9092 0.2248 0.26901 0.0813 0.28117 0.0795 0.41337-0.0612 0.27317-0.29078 1.248-0.98122 1.7395-1.232 0.61901-0.31586 1.2544-0.47552 1.5301-0.38451 0.4499 0.14848 0.65307 0.56825 0.75431 1.5585 0.0785 0.76813-0.0108 1.9011-0.1975 2.5057l-0.1198 0.38788 0.1538 0.34272c0.18207 0.4057 0.38793 1.1776 0.38793 1.4546 0 0.2224 0.0132 0.22816 0.66457 0.289 0.46042 0.043 0.65148 0.16222 0.65148 0.40651 0 0.3022-0.12126 0.35417-0.79665 0.34143l-0.60812-0.0115-0.10063 0.3999c-0.0553 0.21994-0.11762 0.45706-0.1384 0.52693-0.0336 0.1129-6e-3 0.13393 0.25068 0.18891 0.56638 0.12146 0.78685 0.26357 0.78685 0.50718 0 0.33322-0.32368 0.40051-1.0688 0.22218l-0.44771-0.10715-0.17259 0.2407c-0.37317 0.52044-0.93569 1.0355-1.5977 1.4628-0.59835 0.38624-1.4272 0.71325-2.3028 0.90855-0.48845 0.10895-2.4151 0.16594-2.969 0.0878zm2.7324-0.88954c1.2438-0.23983 2.1881-0.73704 3.0647-1.6136l0.35916-0.35916-0.61282-0.12748c-0.46896-0.0976-0.63827-0.1589-0.7212-0.26131-0.14247-0.17594-0.13695-0.32871 0.0174-0.4831 0.11036-0.11036 0.17024-0.12145 0.48797-0.0904 0.1992 0.0195 0.56181 0.0728 0.80579 0.11854 0.2814 0.0528 0.46913 0.0628 0.5134 0.0275 0.0669-0.0534 0.33107-0.75787 0.28423-0.75787-0.16103 0-1.3557 0.27252-1.6836 0.38405-0.36951 0.12568-0.45396 0.13623-0.58613 0.0732-0.21054-0.10039-0.24236-0.39829-0.0606-0.5676 0.19803-0.1845 1.0638-0.47349 1.7483-0.5836 0.61145-0.0984 0.61256-0.0988 0.61256-0.26759 0-0.29664-0.12345-0.70962-0.37208-1.2447l-0.24185-0.52052 0.15478-0.485c0.0851-0.26675 0.18715-0.73142 0.22671-1.0326 0.0782-0.59531 0.0453-1.6138-0.0642-1.9863-0.0604-0.2056-0.0818-0.22376-0.22517-0.19144-0.44653 0.10065-2.137 1.122-2.1393 1.2925-2.2e-4 0.0252 0.0602 0.069 0.13462 0.0972 0.0744 0.0283 0.26106 0.16736 0.41487 0.30907 0.34751 0.32017 0.41525 0.5644 0.2099 0.75672-0.18712 0.17523-0.37059 0.13154-0.81193-0.19335-0.42888-0.31573-1.2364-0.64801-1.9031-0.7831-0.71592-0.14506-2.0307-0.0897-2.6881 0.11313-0.62298 0.19224-1.0349 0.38434-1.5318 0.71434-0.42049 0.27925-0.59604 0.32499-0.75609 0.19703-0.27058-0.21633-0.13239-0.57673 0.36685-0.95674l0.30503-0.23218-0.22707-0.19676c-0.54079-0.46859-1.4765-1.0065-1.9285-1.1086-0.13994-0.0316-0.17268-0.0133-0.22636 0.12704-0.10167 0.26576-0.13462 1.3597-0.0582 1.9317 0.0386 0.28909 0.13496 0.72826 0.21407 0.97595 0.183 0.57293 0.18149 0.62599-0.0307 1.0795-0.16689 0.35666-0.41539 1.1996-0.41539 1.409 0 0.0767 0.10732 0.1125 0.51421 0.17134 0.28282 0.0409 0.79846 0.16623 1.1458 0.27853 0.86618 0.28002 1.1106 0.53267 0.81861 0.8461-0.13348 0.14327-0.24248 0.13969-0.74197-0.0243-0.38035-0.12491-1.1458-0.30653-1.4509-0.34427l-0.27608-0.0342 0.14818 0.36787c0.0815 0.20234 0.16867 0.38937 0.19371 0.41564 0.025 0.0263 0.34471-9e-3 0.71036-0.0794 0.78022-0.14928 1.0442-0.12546 1.1307 0.10198 0.12321 0.32407-0.20953 0.56702-0.88054 0.64293-0.20266 0.0229-0.38437 0.0674-0.40383 0.0989-0.0455 0.0736 0.56467 0.65251 0.97752 0.92757 0.17515 0.11669 0.4144 0.27646 0.53167 0.35505 0.3189 0.2137 1.221 0.5751 1.7174 0.688 1.0145 0.23074 2.1172 0.23922 3.2289 0.0249zm-3.1949-1.779c-0.31851-0.16857-0.43506-0.27916-0.56732-0.53831-0.14196-0.27814-0.14081-0.3728 6e-3 -0.5199 0.17187-0.17187 0.36997-0.14577 0.64637 0.0852 0.13393 0.11189 0.29657 0.22029 0.36141 0.24087 0.20256 0.0643 0.5221-0.084 0.67921-0.3152 0.18345-0.26997 0.18274-0.28439-0.0161-0.32508-0.23359-0.0478-0.3625-0.16183-0.42301-0.37412-0.13259-0.46515 0.32483-0.67012 1.2632-0.56603 0.59598 0.0661 0.74207 0.167 0.74207 0.51243 0 0.23172-0.13677 0.36801-0.4314 0.42991l-0.21846 0.0459 0.11737 0.19277c0.1609 0.26426 0.45812 0.44127 0.67325 0.40095 0.0937-0.0176 0.27343-0.12506 0.39942-0.23889 0.24946-0.22537 0.42591-0.25756 0.62962-0.11488 0.19082 0.13365 0.16867 0.38237-0.0608 0.68253-0.26574 0.34764-0.62444 0.52665-1.0553 0.52665-0.38832 0-0.57928-0.0592-0.89794-0.27848l-0.22319-0.15357-0.1325 0.12448c-0.343 0.32223-1.0622 0.41035-1.4922 0.18282zm-1.9674-3.043c-0.21469-0.15037-0.17273-0.39522 0.11992-0.69981 0.63541-0.66132 1.8738-0.54542 2.268 0.21226 0.11835 0.22744 0.10307 0.3815-0.0483 0.48755-0.19417 0.136-0.42691 0.1123-0.63752-0.0649-0.12559-0.10567-0.27692-0.16543-0.46294-0.18282-0.23768-0.0222-0.31147-2.2e-4 -0.52723 0.15699-0.27649 0.2015-0.5111 0.23141-0.71191 0.0908zm4.9553-0.0262c-0.13061-0.1306-0.14432-0.21959-0.0657-0.42631 0.12978-0.34136 0.70686-0.6975 1.1302-0.6975 0.34889 0 0.79545 0.18821 1.0496 0.44237 0.27203 0.27204 0.31409 0.44795 0.15976 0.66828-0.12736 0.18184-0.35692 0.16573-0.67096-0.0471-0.37733-0.25568-0.56429-0.25471-0.93235 5e-3 -0.28766 0.20286-0.50509 0.22081-0.67053 0.0554z" fill="#fff" stroke-width=".22355"/>
 </g>
</svg>
