<?xml version="1.0" encoding="UTF-8"?>
<!-- Created with Inkscape (http://www.inkscape.org/) -->
<svg width="71.717" height="49.656" version="1.1" viewBox="0 0 18.975 13.138" xmlns="http://www.w3.org/2000/svg">
 <g transform="translate(-140.23 -201.08)">
  <path d="m147.49 214.21c-0.60757-0.0949-0.32949-1.7861 0.50244-3.0556 0.57844-0.88269 1.1526-1.229 1.4709-0.88738 0.0736 0.079 0.13387 0.19282 0.13387 0.25284 0 0.06-0.1561 0.28659-0.3469 0.50345-0.60698 0.68992-1.0071 1.5427-1.1519 2.4552-0.0996 0.62791-0.2344 0.78994-0.60842 0.73151zm8.8519-0.53518c-0.66677-0.20002-0.96641-0.43664-1.438-1.1355-0.36673-0.54347-0.65823-0.80532-1.1557-1.0381-0.32804-0.15352-0.50651-0.18827-1.252-0.24382-1.0851-0.0808-1.5741-0.18049-2.0959-0.42704-0.69363-0.32772-1.3348-1.1069-1.5339-1.8639-0.18304-0.69604-0.0864-1.6035 0.1915-1.7982 0.39748-0.27841 0.85155 0.0836 0.71682 0.57142-0.10354 0.37493-0.034 1.005 0.15114 1.3697 0.16708 0.32916 0.54876 0.72056 0.92037 0.94382 0.30132 0.18103 0.70122 0.25953 1.6862 0.331 0.4637 0.0336 0.99766 0.10741 1.1866 0.16391 0.79203 0.23691 1.4045 0.67963 1.8728 1.3538 0.42184 0.60725 0.54581 0.73215 0.86903 0.87555 0.60747 0.26953 1.4392-0.10773 1.7201-0.78024 0.1967-0.47089 0.0674-0.87261-0.55916-1.7368-1.4677-2.0243-1.7928-2.6589-1.8713-3.6517-0.0217-0.27478-0.069-0.61155-0.10506-0.74837-0.16627-0.63055-0.59366-1.1673-1.1146-1.3999l-0.28103-0.12547-0.21858 0.20835c-0.27402 0.26118-0.44198 0.34802-0.67318 0.34802-0.20331 0-0.38861-0.16628-0.38826-0.3484 2.4e-4 -0.14825 0.18195-0.45263 0.40071-0.67138 0.19573-0.19573 0.36812-0.57753 0.46524-1.0304 0.085-0.39633 0.0921-0.82259 0.0137-0.82259-0.11876 0-0.69819 0.51244-0.93525 0.82711-0.136 0.18053-0.32069 0.4828-0.41043 0.67172-0.29127 0.61318-0.31673 0.65297-0.46508 0.72693-0.18893 0.0942-0.48526-3e-3 -0.54046-0.17651-0.0598-0.18849-0.0469-0.49698 0.0292-0.69399l0.0674-0.1748-0.35871 0.0338c-1.3892 0.13102-1.7401 0.17928-2.2947 0.31563-0.56024 0.13773-0.64533 0.17777-0.82685 0.38908-0.22082 0.25708-0.5246 0.92883-0.66664 1.4742-0.0496 0.19033-0.10996 0.64197-0.13418 1.0036-0.0349 0.52063-0.0679 0.67914-0.1585 0.76115-0.1584 0.14334-0.41707 0.1295-0.57743-0.0309-0.12205-0.12208-0.13373-0.19624-0.12672-0.80406 9e-3 -0.73212 0.11471-1.222 0.40791-1.8804 0.2095-0.47049 0.20784-0.46103 0.0684-0.38784-0.0601 0.0315-0.36078 0.17932-0.66816 0.3284-0.98022 0.47539-1.3981 0.76931-1.8064 1.2706-0.34733 0.42639-0.6514 1.3161-0.73562 2.1524-0.11985 1.19-0.24925 1.9789-0.39984 2.4375-0.26993 0.82201-0.74476 1.5238-1.4344 2.1202-0.7161 0.61921-1.3109 0.84019-1.55 0.5759-0.24494-0.27065-0.10266-0.47828 0.77096-1.1251 0.78516-0.58128 1.3027-1.4807 1.497-2.6015 0.14766-0.85182 0.3114-2.0532 0.28363-2.081-0.0417-0.0417-0.54238 0.86143-0.7426 1.3394-0.25152 0.60043-0.34166 0.95309-0.42012 1.6436-0.0455 0.4005-0.0932 0.56597-0.19387 0.67317-0.17346 0.18464-0.39135 0.18047-0.58298-0.0112-0.13519-0.13519-0.15329-0.20796-0.15329-0.6165 0-0.88207 0.39884-2.07 1.0145-3.0218 0.74413-1.1503 2.1186-2.4795 3.2946-3.1861 1.5435-0.92738 3.9997-1.5563 6.2485-1.6l0.7393-0.0143 0.39369-0.37581c0.83752-0.79948 1.4427-1.0546 1.9184-0.80855 0.44886 0.23211 0.55106 1.1974 0.23232 2.1942-0.035 0.10949 1e-3 0.14918 0.22472 0.24591 0.14656 0.0634 0.31388 0.15499 0.37182 0.20343 0.058 0.0484 0.13257 0.0713 0.16582 0.0507 0.138-0.0853 0.88488-1.4737 0.79276-1.4737-0.0169 0-0.22997 0.0952-0.47358 0.2116-0.25602 0.1223-0.49604 0.1977-0.56877 0.17868-0.17258-0.0451-0.26406-0.27451-0.21461-0.53811 0.0352-0.18769 0.0933-0.24804 0.39721-0.41265 0.46451-0.25159 0.8958-0.37628 1.3014-0.37628 0.27954 0 0.3466 0.0241 0.45705 0.16455 0.16963 0.21564 0.16329 0.40854-0.034 1.0344-0.20227 0.64173-0.3664 0.97007-0.73509 1.4705l-0.28733 0.38999 0.18078 0.29698c0.27034 0.44409 0.38192 0.8395 0.47688 1.69 0.0737 0.66012 0.11413 0.81864 0.28664 1.1241 0.23796 0.42138 0.84649 1.3409 1.5123 2.285 0.77695 1.1018 0.8935 1.7323 0.47675 2.5788-0.21807 0.44296-0.60245 0.81324-1.0937 1.0536-0.40407 0.1977-1.1042 0.25733-1.5281 0.13017zm0.24253-2.032c-0.11124-0.0901-0.14602-0.1809-0.14602-0.38134 0-0.33159 0.21259-0.53524 0.62296-0.59678 0.48477-0.0727 0.66396 0.2347 0.42017 0.72078-0.18277 0.36439-0.61263 0.4877-0.89711 0.25734zm-12.656-2.4146c-0.0763-0.0535-0.1388-0.15945-0.1388-0.2355 0-0.0761 0.1829-0.47494 0.40644-0.88639 0.28275-0.52043 0.50179-1.0427 0.71975-1.7161 0.17232-0.53239 0.34657-1.0382 0.38721-1.1241 0.15842-0.33471 0.50759-0.4796 0.67364-0.27953 0.11255 0.13562 0.0455 0.71715-0.18701 1.6222-0.21867 0.85115-0.5031 1.498-0.90865 2.0663-0.44443 0.6228-0.66786 0.75254-0.95258 0.55312zm10.072-1.8963c-0.22668-0.0618-0.93247-0.39734-1.0621-0.50493-0.0535-0.0444-0.0932-0.18108-0.0932-0.32046 0-0.20722 0.0299-0.26133 0.20297-0.36683 0.23179-0.14133 0.73832-0.16549 1.1397-0.0544 0.34891 0.0966 0.84309 0.59529 0.84309 0.85081 0 0.32967-0.52846 0.53263-1.0304 0.39577zm-6.248-0.72031c-0.1919-0.19189-0.19119-0.29352 5e-3 -0.71495 0.33621-0.72224 1.0944-1.4551 2.0388-1.9708 0.53532-0.29228 0.8854-0.32291 1.0602-0.0928 0.19836 0.26111 0.0829 0.42752-0.55768 0.8035-0.74325 0.43626-1.3049 0.95367-1.6686 1.5373-0.37766 0.60594-0.59912 0.71638-0.87777 0.43773z" fill="#fff" stroke-width=".23604"/>
 </g>
</svg>
