<?xml version="1.0" encoding="UTF-8"?>
<!-- Created with Inkscape (http://www.inkscape.org/) -->
<svg width="58.726" height="46.537" version="1.1" viewBox="0 0 15.538 12.313" xmlns="http://www.w3.org/2000/svg">
 <g transform="translate(-56.356 -153.46)">
  <path d="m63.459 165.68c-1.6422-0.42796-3.1807-1.8325-3.6735-3.3535-0.17324-0.53473-0.16247-0.68002 0.0646-0.87108 0.14118-0.11879 0.22805-0.14952 0.34389-0.12166 0.2136 0.0514 0.27404 0.14782 0.46145 0.7364 0.53882 1.6922 2.5642 3.1256 3.9571 2.8007 1.2793-0.29844 2.5886-1.5454 2.9793-2.8375 0.16186-0.53523 0.3428-0.78848 0.56334-0.78848 0.11088 0 0.11063-6e-3 -8e-3 -0.20781-0.26668-0.45199-0.32452-0.89917-0.37924-2.9321-0.0558-2.0719-0.38162-2.7587-1.5997-3.3718-0.70627-0.35553-1.1962-0.44413-2.2604-0.40873-0.72014 0.024-0.94835 0.0553-1.3457 0.18468-0.86472 0.28162-1.5231 0.76368-1.7911 1.3114-0.26499 0.54162-0.33369 1.0297-0.38887 2.7629-0.0668 2.0965-0.16289 2.4829-0.71402 2.8699-0.22763 0.15984-0.30518 0.18023-0.68492 0.18008-0.48293-1.9e-4 -0.88977-0.12823-1.2655-0.39827-0.47662-0.34254-0.91238-0.83106-1.1382-1.2761-0.20339-0.4007-0.22316-0.48279-0.22316-0.92646 0-0.44954 0.0187-0.5243 0.24381-0.97638 0.34051-0.68374 1.7307-2.2614 2.4334-2.7614 0.54801-0.39001 0.83452-0.51639 1.1354-0.50081 0.23245 0.012 0.29277-0.0141 0.52332-0.2266 0.53453-0.49271 1.3541-0.87014 2.2596-1.0406 0.55249-0.104 1.9086-0.0908 2.4281 0.0237 0.89473 0.19711 1.5526 0.5144 2.0181 0.97323 0.24707 0.24359 0.31691 0.27936 0.58149 0.2979 0.16539 0.0116 0.41363 0.0714 0.55165 0.13291 0.70726 0.3152 2.8313 2.4769 3.1597 3.2156 0.40807 0.91819 0.2057 1.7374-0.63769 2.5812-0.47366 0.47392-0.9505 0.74135-1.5438 0.86578-0.32466 0.0681-0.55591 0.0425-0.88177-0.0976-0.0769-0.033-0.0898-8e-3 -0.0688 0.13548 0.0314 0.21382-0.11513 0.73738-0.35341 1.2629-0.4945 1.0906-1.8192 2.2765-3.0166 2.7005-0.49423 0.17502-1.1979 0.20003-1.7295 0.0615zm-4.2045-5.093c0.15921-0.32791 0.22637-0.90593 0.22686-1.9524 4.6e-4 -1.1495 0.0872-2.0811 0.2339-2.5158 0.0601-0.17803 0.0808-0.31646 0.0474-0.31646-0.0891 0-1.7438 1.7054-2.0577 2.1208-0.3548 0.4695-0.4489 0.70287-0.44414 1.1014 7e-3 0.61156 0.51217 1.3251 1.1708 1.6546 0.42749 0.21391 0.68855 0.18466 0.82297-0.0922zm10.565 3e-3c0.69041-0.35147 1.145-0.96591 1.145-1.5476 0-0.57089-0.26773-0.9457-1.7483-2.4475-0.7462-0.75693-0.94691-0.9186-0.85387-0.68779 0.14606 0.36233 0.26079 1.2475 0.29737 2.2941 0.0914 2.6143 0.21529 2.8696 1.1598 2.3888zm-6.363 3.5502c-0.46258-0.16425-1.0444-0.80021-1.0444-1.1416 0-0.10293-0.0703-0.17279-0.28409-0.28216-0.50497-0.25838-0.91206-0.78006-0.91206-1.1688 0-0.20683 0.0251-0.25277 0.18241-0.33413 0.28897-0.14943 0.57236-0.011 0.75183 0.36718 0.1144 0.24107 0.4998 0.50158 0.74206 0.50158 0.21357 0 0.46029-0.11562 0.61757-0.2894 0.1087-0.12012 0.10666-0.12562-0.11871-0.32011-0.56021-0.48346-0.79582-0.85146-0.79828-1.2468-6.7e-4 -0.11638 0.0593-0.33169 0.13326-0.47846 0.24849-0.49277 1.0297-0.74828 1.8344-0.6 0.69296 0.12768 1.0241 0.40766 1.1013 0.93122 0.0511 0.34643-0.13015 0.701-0.60608 1.1856l-0.40079 0.40811 0.23425 0.20492c0.19125 0.1673 0.2829 0.20491 0.49939 0.20491 0.28307 0 0.42532-0.10831 0.80846-0.61559 0.39674-0.52527 1.0031-0.27467 0.82026 0.33899-0.0813 0.27279-0.534 0.74926-0.8793 0.92541-0.18337 0.0936-0.26587 0.1884-0.3592 0.41299-0.28291 0.68075-0.91636 1.0948-1.6621 1.0865-0.23025-3e-3 -0.5273-0.0433-0.6601-0.0904zm1.2557-0.94548c0.11652-0.0889 0.21146-0.19386 0.21099-0.2333-4.6e-4 -0.0394-0.12832-0.14563-0.28409-0.23596-0.15577-0.0903-0.32658-0.19548-0.37956-0.23367-0.0774-0.0558-0.13619-0.0396-0.29904 0.0823-0.11149 0.0834-0.30363 0.18727-0.42698 0.23074-0.24783 0.0873-0.278 0.16726-0.11784 0.31221 0.35161 0.31819 0.93535 0.35318 1.2965 0.0777zm-0.25134-2.4731c0.15395-0.15631 0.28751-0.35035 0.29679-0.43121 0.038-0.33081-0.81079-0.46791-1.1577-0.18701-0.11067 0.0896-0.11753 0.12111-0.0527 0.2422 0.086 0.16073 0.53558 0.6602 0.59423 0.6602 0.0217 0 0.16545-0.12788 0.3194-0.28418zm-2.8689-2.1974c-0.22608-0.18259-0.30588-0.48423-0.19739-0.74615 0.20524-0.49552 0.9454-0.52185 1.1743-0.0418 0.20496 0.4298-0.0472 0.86861-0.52688 0.91707-0.21161 0.0214-0.29241-2e-3 -0.45006-0.12914zm4.3043 0.0875c-0.16257-0.0654-0.37365-0.3952-0.37395-0.58437-2.3e-4 -0.18578 0.15443-0.47297 0.2955-0.54847 0.19888-0.10644 0.62959-0.0738 0.80059 0.0607 0.21736 0.17098 0.30078 0.49987 0.18403 0.72563-0.16885 0.32653-0.57218 0.48074-0.90617 0.34646z" fill="#fff" stroke-width=".22604"/>
 </g>
</svg>
