<?xml version="1.0" encoding="UTF-8"?>
<!-- Created with Inkscape (http://www.inkscape.org/) -->
<svg width="841.14" height="229.63" version="1.1" viewBox="0 0 222.55 60.755" xml:space="preserve" xmlns="http://www.w3.org/2000/svg"><g transform="translate(23.35 -74.163)"><path d="m14.407 134.85c-2.9198-0.4484-6.9231-2.3241-13.377-6.2678-3.3758-2.0627-9.407-6.5658-12.789-9.5491-8.2316-7.2602-11.585-12.741-11.59-18.94-0.0023-2.923 0.57148-4.9009 2.034-7.0115 1.6965-2.4483 3.1727-3.7595 5.6243-4.9958 2.299-1.1593 4.5559-1.571 8.7174-1.5902l3.7541-0.0173 0.29353-1.1657c1.1176-4.4383 6.0019-9.0163 11.34-10.629 2.633-0.79531 6.685-0.66723 8.6606 0.27376 2.6872 1.2799 5.9089 4.7483 6.3285 6.813 0.18186 0.89492 0.06696 1.0403-0.47378 0.5993-2.0762-1.693-2.7804-2.0741-5.1578-2.791-1.4342-0.43247-5.439-0.44228-7.2628-0.0178-1.9914 0.46351-5.0592 2.1563-6.4326 3.5494-0.64782 0.6571-1.1779 1.2904-1.1779 1.4074 0 0.26765 0.79748-6e-3 1.3245-0.45495 0.21914-0.18657 1.3972-0.8324 2.6178-1.4352 1.6074-0.79377 2.7112-1.1485 4.0032-1.2866 1.8625-0.19901 5.2994-0.1611 6.2097 0.0685 2.577 0.64996 4.1892 1.5646 5.6169 3.1866l1.039 1.1804 0.77309-0.44c0.60698-0.34546 1.4553-0.43707 3.9481-0.42635 2.9066 0.0125 3.3259 0.0789 4.9603 0.78514 3.5374 1.5286 6.1027 4.3729 7.3363 8.1341 2.1476 6.548-1.4394 18.494-8.6737 28.885-2.3014 3.3059-6.2355 8.1511-7.5011 9.2383-0.6319 0.54281-2.0237 1.4088-3.093 1.9245-1.6538 0.79757-2.2661 0.94925-4.101 1.0159-1.1863 0.0431-2.5142 0.0234-2.9507-0.0436zm-4.2767-11.648c0.46041-0.236 1.3418-0.77435 1.9587-1.1963s1.6289-0.95004 2.249-1.1734c1.3004-0.46854 3.7541-0.5124 4.8632-0.0869 0.41917 0.1608 1.8566 0.29712 3.1942 0.30295 2.2305 0.01 2.5357-0.0531 3.6822-0.75765 0.68754-0.42253 1.6172-1.2218 2.0658-1.7761 0.76348-0.9433 0.81547-1.1462 0.81118-3.1662-0.0036-1.6972-0.12602-2.3843-0.5731-3.2166-1.505-2.8016-5.4762-5.4752-9.7946-6.5942-4.8503-1.2568-10.353 0.45519-14.545 4.5252-2.5586 2.4842-3.3279 4.1088-3.3603 7.0961-0.02822 2.6008 0.94835 4.2992 3.3472 5.8214 1.5641 0.99249 4.3972 1.0955 6.1016 0.22186zm-19.488-7.5879c-3.0789-3.5069-6.0432-9.4022-6.5527-13.032-0.5755-4.0998 0.31609-7.2879 2.6659-9.5329 0.56211-0.53702 0.5891-0.62935 0.18392-0.62935-0.87715 0-2.8427 1.0738-3.8326 2.0939-2.4395 2.5138-2.608 7.6747-0.39796 12.194 1.2483 2.5525 3.5315 5.5537 5.6689 7.4519 2.7518 2.4438 3.5342 3.1155 3.6383 3.1237 0.05415 4e-3 -0.56407-0.74687-1.3738-1.6692zm12.99-9.7179c0.78863-0.49618 1.6471-2.2927 1.6435-3.4392-0.0038-1.2108-0.64162-3.2533-1.4428-4.6203-1.3615-2.3232-3.8558-3.7514-6.1084-3.4975-4.5216 0.50965-4.3626 7.8528 0.23861 11.019 0.62448 0.42965 1.5407 0.88621 2.0361 1.0146 1.0715 0.27765 2.7936 0.052 3.6329-0.47609zm23.648-2.0644c1.1049-0.42009 2.2704-1.8032 2.8737-3.4101 0.45908-1.2229 0.5463-1.9063 0.44715-3.5036-0.20169-3.2493-1.2884-4.8679-3.9028-5.8132-0.83002-0.30009-1.0573-0.27712-1.9844 0.20055-2.0114 1.0364-2.9113 2.3319-3.6798 5.298-0.49464 1.9089-0.35494 3.8935 0.37475 5.3238 0.93032 1.8236 3.7116 2.7257 5.8715 1.9045zm-13.173-2.6955c1.4278-0.76524 1.9223-1.2858 2.5331-2.6668 1.2496-2.8248 0.8817-7.1552-0.80573-9.4846-0.93269-1.2875-2.9903-2.3856-4.4703-2.3856-3.0606 0-4.8487 2.2431-4.8513 6.0854-0.0014 2.1916 0.4702 3.9078 1.6958 6.1708 1.3836 2.5545 3.7095 3.4539 5.8984 2.2808zm91.76 17.459c-2.9135-0.57336-5.6938-2.4396-7.3487-4.933-1.4002-2.1094-1.9583-3.9568-1.9583-6.4818 0-2.8236 0.39471-4.2544 1.7379-6.2999 2.4181-3.6825 5.5215-5.1324 10.793-5.0425 4.4952 0.0767 8.3524 2.4605 10.028 6.1977 0.64123 1.4299 1.0755 4.4673 0.87179 6.0969l-0.16916 1.353-8.1601-0.042c-9.226-0.0475-8.8396-0.15755-6.9987 1.9931 1.2709 1.4848 3.3472 2.2463 5.6556 2.0743 1.6982-0.12655 4.1766-0.99199 4.5443-1.5868 0.12464-0.20166 0.53389 0.0525 1.1986 0.74428 0.55517 0.57777 1.4183 1.3897 1.918 1.8043l0.90863 0.75381-0.64676 0.51255c-3.0516 2.4184-5.1026 3.1515-8.7018 3.1102-1.3906-0.0159-3.0431-0.13029-3.6723-0.25411zm7.3617-14.524c0-0.76165-1.397-2.3426-2.4528-2.7756-2.5049-1.0274-6.0238 0.10126-6.8362 2.1927-0.13191 0.33963-0.16857 0.73284-0.0814 0.8738 0.0942 0.15242 2.025 0.23734 4.7644 0.20953 4.1561-0.0422 4.606-0.0911 4.606-0.50047zm70.511 14.641c-3.7818-0.96197-6.3552-2.9069-7.893-5.9654-2.6466-5.2636-1.2932-11.372 3.2811-14.809 2.9784-2.2379 8.9115-2.8422 12.926-1.3166 6.1805 2.3484 8.905 9.6942 5.95 16.042-0.92029 1.977-2.985 3.9336-5.3612 5.0804-1.9499 0.94108-2.1408 0.97926-5.1992 1.04-1.7462 0.0347-3.4131 3e-3 -3.7042-0.0715zm5.3004-5.7739c2.5254-1.0552 3.8459-4.4775 2.9357-7.6085-0.78422-2.6976-2.3899-3.9143-5.1656-3.9143-2.0604 0-2.8614 0.32102-4.0413 1.6196-1.3242 1.4574-1.695 3.0525-1.2806 5.5094 0.25676 1.5222 0.4835 2.0407 1.2817 2.9306 1.5258 1.7011 4.2046 2.3263 6.2701 1.4632zm-128.12 5.2122-12.227-0.0715-0.07641-2.3125-0.07641-2.3125 1.2742-1.6922c0.70081-0.93071 1.621-2.1213 2.045-2.6458 0.42393-0.5245 1.5509-1.9657 2.5044-3.2026 1.9858-2.576 1.723-2.2449 4.4951-5.6645 3.6362-4.4855 4.8905-6.1026 4.8927-6.3079 1e-3 -0.10914-3.034-0.19843-6.7448-0.19843-4.3145 0-6.7507-0.0954-6.7575-0.26459-0.07601-1.9004 0.0041-5.5562 0.12171-5.5562h11.134 10.98v2.8516c0 2.8378-0.19 3.5564-1.1698 4.4245-0.16426 0.14552-1.3074 1.5147-2.5402 3.0427s-2.3107 2.8377-2.3952 2.9104c-0.0845 0.0728-1.0302 1.2634-2.1015 2.6458-1.0713 1.3824-2.6744 3.4065-3.5624 4.4979-0.88797 1.0914-1.9487 2.4277-2.3571 2.9696l-0.74262 0.98523 15.663-0.1184-2e-5 3.1088c-1e-5 1.7099-0.0298 3.0803-0.0662 3.0454-0.0364-0.0349-5.5682-0.0956-12.293-0.13493zm61.836-10.716c2.5e-4 -5.93-0.0293-10.871-0.0657-10.98s1.5174-0.2317 3.453-0.27236c2.7384-0.0575 3.5092 1e-3 3.4744 0.26458-0.0246 0.18618-0.0306 0.6882-0.0134 1.1156l0.0313 0.77711 0.7276-0.69537c1.1786-1.1263 2.9085-1.7726 4.7625-1.7791l1.6536-6e-3 0.0154 1.7859c9e-3 0.98227 0.0209 2.3812 0.0276 3.1089 7e-3 0.7276-2.8e-4 1.3997-0.0155 1.4935-0.0152 0.0938-0.4479 0.0758-0.96163-0.0401-1.2813-0.28898-3.4413 0.31814-4.427 1.2443-1.4808 1.3914-1.6099 2.0332-1.7295 8.5989l-0.10937 6.0049-6.8239 0.161zm19.91 10.707-3.2412-0.0743v-21.944h3.3073c1.819 0 3.3141 0.0893 3.3224 0.19843 0.0964 1.2686 0.0822 21.823-0.0151 21.853-0.0728 0.0225-1.5908 7e-3 -3.3734-0.0334zm-60.391-0.41756c0-0.28558-2.2859-5.9102-3.4561-8.504-0.50525-1.1199-2.7071-6.4587-3.6-8.7288-0.51459-1.3083-1.164-2.8264-1.443-3.3734l-0.50744-0.99465h7.5849l0.68671 1.7859c0.37769 0.98227 1.0535 2.8575 1.5018 4.1672 1.2858 3.7565 2.9087 8.218 2.9237 8.0372 0.0129-0.15513 3.5385-10.428 4.4154-12.866l0.40453-1.1245h3.4177c2.4938 0 3.4177 0.0864 3.4177 0.31951 0 0.48806-4.6856 12.757-7.7344 20.252l-0.56504 1.3891h-3.5232c-2.7928 0-3.5232-0.0745-3.5232-0.35955zm67.998-10.621v-10.98h6.8623l-0.12212 1.2069-0.12213 1.2069 1.1227-0.90735c1.4758-1.1927 1.9342-1.4136 3.539-1.7053 1.8287-0.33238 4.5579 0.036 6.1015 0.82355 1.9684 1.0043 3.0728 2.3898 3.9306 4.9315 0.43073 1.2762 0.49269 2.3667 0.50363 8.8635l0.0125 7.4083-6.7469 0.148-1e-3 -6.5563c-8.3e-4 -3.7069-0.12062-6.9854-0.27563-7.5435-0.75304-2.7115-4.7471-3.3934-6.8335-1.1666-0.91516 0.97674-1.0672 2.2575-1.08 9.0991l-0.0115 6.1516h-6.8792zm-9.9979-13.398c-0.47837-0.30631-1.0439-0.89371-1.2568-1.3053-0.52184-1.0091-0.48856-2.77 0.0702-3.716 0.54635-0.9249 2.2745-1.8211 3.5115-1.8211 3.5468 0 5.3692 3.9535 2.9415 6.3811-0.97962 0.97963-1.1052 1.027-2.712 1.0228-1.2554-3e-3 -1.9064-0.14639-2.5546-0.56141z" fill="#fff"/></g></svg>
