<?xml version="1.0" encoding="UTF-8"?>
<!-- Created with Inkscape (http://www.inkscape.org/) -->
<svg width="6.4046mm" height="5.9235mm" version="1.1" viewBox="0 0 6.4046 5.9235" xml:space="preserve" xmlns="http://www.w3.org/2000/svg"><defs><clipPath id="clipPath3"><path d="m-119.67 228.15h531.33v-491.3h-531.33z"/></clipPath><clipPath id="clipPath5"><path d="m-271.12 249.99h531.33v-491.3h-531.33z"/></clipPath><clipPath id="clipPath8"><path d="m-412.47 190.49h531.33v-491.3h-531.33z"/></clipPath></defs><g transform="translate(-101.57 -145.47)"><g transform="matrix(.017382 0 0 .017382 108.37 127.5)" fill="#fff"><path d="m-223.84 1089.8c10.772 37.16 0.2073 72.88-23.595 79.784-23.802 6.9036-51.841-17.625-62.613-54.781-10.773-37.16-0.2074-72.88 23.586-79.78 23.81-6.9077 51.849 17.62 62.622 54.776"/><path transform="matrix(.69348 0 0 -.69348 -308.14 1192.1)" d="m0 0c24.811-42.315 21.918-90.114-6.47-106.75-28.388-16.649-71.526 4.158-96.324 46.485-24.823 42.309-21.917 90.115 6.483 106.76 28.376 16.645 71.501-4.17 96.311-46.491" clip-path="url(#clipPath3)"/><path transform="matrix(.69348 0 0 -.69348 -203.1 1207.3)" d="m0 0c69.719 0 199.14-151.76 157.24-213.21-41.904-61.453-114.41-2.93-157.24-2.93-42.825 0-115.34-58.523-157.24 2.93-41.903 61.452 87.522 213.21 157.24 213.21" clip-path="url(#clipPath5)"/><path d="m-191.22 1089.8c-10.773 37.16-0.2074 72.88 23.594 79.784 23.803 6.9036 51.841-17.625 62.614-54.781 10.772-37.16 0.2073-72.88-23.587-79.78-23.81-6.9077-51.849 17.62-62.622 54.776"/><path transform="matrix(.69348 0 0 -.69348 -105.09 1166)" d="m0 0c-30.956-38.044-35.383-85.726-9.849-106.49 25.521-20.777 71.327-6.775 102.27 31.287 30.968 38.039 35.382 85.727 9.836 106.5-25.508 20.77-71.302 6.763-102.26-31.294" clip-path="url(#clipPath8)"/></g></g></svg>
